<?xml version="1.0" encoding="UTF-8"?>
<svg version="1.1" xmlns="http://www.w3.org/2000/svg" width="506" height="486">
<path d="M0 0 C166.98 0 333.96 0 506 0 C506 160.38 506 320.76 506 486 C339.02 486 172.04 486 0 486 C0 325.62 0 165.24 0 0 Z " fill="#F7CF58" transform="translate(0,0)"/>
<path d="M0 0 C6.30594733 3.72326204 10.53252832 9.46259441 12.625 16.4375 C13.54514437 23.91225307 12.59222292 29.99889231 8.625 36.4375 C5.17702138 40.74747327 0.8847379 43.73498086 -4.375 45.4375 C-6.37395023 45.5022919 -8.37647345 45.51425707 -10.375 45.4375 C-10.68244141 46.97470703 -10.68244141 46.97470703 -10.99609375 48.54296875 C-13.375 60.4375 -13.375 60.4375 -14.28695679 62.76667786 C-14.66698256 65.72508816 -14.66698256 65.72508816 -12.03433228 68.4929657 C-10.8841895 69.65748859 -9.71711774 70.80542815 -8.53759766 71.94018555 C-7.90536789 72.57168518 -7.27313812 73.20318481 -6.62174988 73.8538208 C-4.52460108 75.94167762 -2.40711405 78.00758789 -0.2890625 80.07421875 C1.1686601 81.51821273 2.62499298 82.96361088 4.07998657 84.41035461 C7.91695547 88.21872119 11.77114599 92.00917166 15.62957764 95.79577637 C20.31805463 100.40276607 24.98773909 105.02878514 29.65847206 109.65375233 C33.29186851 113.2513196 36.92858164 116.84529451 40.57577515 120.42887878 C41.57892509 121.41710381 41.57892509 121.41710381 42.6023407 122.42529297 C43.8543826 123.65864146 45.10832868 124.89006093 46.36448669 126.11921692 C50.51218091 130.21186182 50.51218091 130.21186182 51.625 132.4375 C51.59248401 140.32306789 49.68729492 147.62808339 47.4375 155.125 C44.94775826 163.6920742 42.61405916 172.26992696 40.5 180.9375 C38.81909885 187.80298086 37.04066826 194.60786707 35 201.375 C34.47043701 203.25747437 34.47043701 203.25747437 33.93017578 205.17797852 C33.11311638 208.00236762 32.13201185 210.63736196 30.94677734 213.32617188 C29.2223761 217.66981933 27.92702749 221.73475594 28.625 226.4375 C32.2635784 233.56475318 38.99116385 238.7680362 44.875 244 C46.48778199 245.50734706 48.09591761 247.01968184 49.69921875 248.53710938 C53.62257438 252.22996954 57.59945953 255.85647389 61.625 259.4375 C60.11553489 262.61836518 58.54558175 264.73619906 56 267.1875 C55.36835938 267.80109375 54.73671875 268.4146875 54.0859375 269.046875 C53.60382813 269.50578125 53.12171875 269.9646875 52.625 270.4375 C47.88165909 266.51440658 43.53146386 262.39111825 39.31640625 257.91015625 C38.14641171 256.69347802 36.97515008 255.4780172 35.80273438 254.26367188 C33.98295846 252.37584852 32.17129153 250.48267959 30.37963867 248.56811523 C28.62929466 246.70258883 26.85146651 244.86741078 25.06640625 243.03515625 C24.53906387 242.45822525 24.0117215 241.88129425 23.46839905 241.28688049 C21.73762913 239.44711484 21.73762913 239.44711484 18.625 237.4375 C13.20609963 237.78309835 8.11344011 238.94594272 2.87963867 240.37109375 C1.78783798 240.66151047 1.78783798 240.66151047 0.67398071 240.95779419 C-1.70440896 241.59180344 -4.08070868 242.23329076 -6.45703125 242.875 C-8.11981219 243.32001676 -9.78271193 243.7645898 -11.44572449 244.20874023 C-15.80396775 245.37411683 -20.16043755 246.5459952 -24.51660156 247.71911621 C-28.07913086 248.67731936 -31.64290207 249.63085256 -35.2067461 250.58415222 C-39.45725661 251.72121894 -43.70722702 252.86029671 -47.95703125 254 C-48.76738138 254.21727753 -49.57773151 254.43455505 -50.41263771 254.65841675 C-52.70091949 255.27250541 -54.98883238 255.88794728 -57.27661133 256.50390625 C-57.95456253 256.6857547 -58.63251373 256.86760315 -59.33100891 257.05496216 C-62.04049916 257.78580344 -64.71175847 258.54975282 -67.375 259.4375 C-68.17831048 261.26361718 -68.17831048 261.26361718 -68.5859375 263.53125 C-68.77599365 264.38759033 -68.9660498 265.24393066 -69.16186523 266.1262207 C-69.35594971 267.05394287 -69.55003418 267.98166504 -69.75 268.9375 C-70.18253382 270.87972587 -70.61877846 272.8211288 -71.05859375 274.76171875 C-71.27757324 275.72899902 -71.49655273 276.6962793 -71.72216797 277.69287109 C-72.61005554 281.42571779 -73.68325199 285.08424542 -74.8125 288.75 C-76.90189702 295.59223759 -78.67165548 302.48959026 -80.375 309.4375 C-82.46605114 317.95699388 -84.73465465 326.38463196 -87.28515625 334.77734375 C-88.52273838 338.93366795 -89.59603795 343.11795788 -90.6015625 347.3359375 C-91.501404 349.78096138 -92.39856172 350.75670399 -94.375 352.4375 C-96.3374939 353.26196289 -96.3374939 353.26196289 -98.63037109 353.91015625 C-99.51383209 354.16458496 -100.39729309 354.41901367 -101.30752563 354.68115234 C-102.28627655 354.95137207 -103.26502747 355.2215918 -104.2734375 355.5 C-105.3176889 355.79600098 -106.36194031 356.09200195 -107.43783569 356.39697266 C-110.42179701 357.2379279 -113.40846697 358.06821782 -116.39720154 358.89202881 C-118.44507494 359.45682647 -120.49217866 360.02435199 -122.53918457 360.59228516 C-131.7465662 363.14382013 -140.9650582 365.6525445 -150.19042969 368.13818359 C-153.43093167 369.01189974 -156.66933658 369.89286814 -159.90625 370.77978516 C-163.87974363 371.86849617 -167.85628384 372.94528792 -171.83533859 374.01348877 C-173.33311551 374.41764451 -174.82979289 374.82589976 -176.32527542 375.23846436 C-178.3996597 375.8097858 -180.47762112 376.36563472 -182.55712891 376.91796875 C-183.73272369 377.23660889 -184.90831848 377.55524902 -186.11953735 377.88354492 C-189.77316211 378.50525194 -191.84701039 378.60433174 -195.375 377.4375 C-197.95793081 375.53987815 -200.14122666 373.31366068 -202.37426758 371.02172852 C-203.38266693 370.0168338 -203.38266693 370.0168338 -204.41143799 368.99163818 C-206.62633078 366.77835789 -208.82288935 364.54778939 -211.01953125 362.31640625 C-212.55453589 360.77461214 -214.09057678 359.23384908 -215.62760925 357.69407654 C-218.84355076 354.46746108 -222.05130886 351.23300948 -225.25268555 347.99194336 C-229.36291183 343.8307647 -233.4859794 339.68262664 -237.6142931 335.53939915 C-241.54496193 331.59396316 -245.47037173 327.64331527 -249.39453125 323.69140625 C-250.14680307 322.93422365 -250.8990749 322.17704105 -251.67414284 321.39691353 C-253.79319082 319.26163895 -255.90859676 317.12283007 -258.02270508 314.98266602 C-258.65488449 314.34622665 -259.2870639 313.70978729 -259.93840027 313.05406189 C-265.51832657 307.39042444 -265.51832657 307.39042444 -265.56867981 302.34086609 C-265.50997721 297.61861986 -264.60472242 293.49362569 -263.27612305 288.98364258 C-263.05351303 288.19217331 -262.83090302 287.40070404 -262.60154724 286.58525085 C-262.12183385 284.88321188 -261.63712899 283.18257313 -261.14786339 281.48325539 C-260.37521253 278.7919527 -259.62059848 276.096183 -258.87104797 273.39836121 C-256.73988132 265.73456263 -254.5879663 258.0769238 -252.3972168 250.42993164 C-251.05463969 245.73880021 -249.74220359 241.04010544 -248.44861794 236.33524132 C-247.95081016 234.54786763 -247.44155214 232.76364182 -246.92066002 230.98285866 C-246.19430789 228.49659401 -245.50671631 226.00249823 -244.8269043 223.50317383 C-244.60321167 222.77212433 -244.37951904 222.04107483 -244.14904785 221.28787231 C-243.40585447 218.43080743 -242.91564259 216.25602363 -244.40308571 213.60556602 C-245.90576151 211.72191241 -245.90576151 211.72191241 -248.375 209.4375 C-249.509375 209.7675 -250.64375 210.0975 -251.8125 210.4375 C-259.92831836 212.39157226 -265.73514342 212.01139759 -273.14453125 207.921875 C-278.29072254 204.4970892 -281.95900097 199.51540354 -283.375 193.4375 C-284.17910667 185.76906813 -284.24330779 178.72752599 -279.375 172.4375 C-273.90553204 166.37262161 -267.62705983 163.42079933 -259.5 162.9375 C-253.09953056 163.15446507 -247.56042179 165.66359203 -242.7421875 169.859375 C-236.681753 176.60932001 -236.047653 182.63531917 -236.171875 191.3515625 C-236.375 194.4375 -236.375 194.4375 -237.015625 197.2109375 C-237.13421875 197.94570312 -237.2528125 198.68046875 -237.375 199.4375 C-235.62490567 201.64671339 -235.62490567 201.64671339 -233.49746609 201.48582554 C-228.28411877 200.79691832 -223.29006836 199.80347716 -218.22485352 198.39624023 C-217.46597336 198.19126923 -216.7070932 197.98629822 -215.92521667 197.77511597 C-213.44972518 197.10493996 -210.97687558 196.42551127 -208.50390625 195.74609375 C-206.77295925 195.27604229 -205.04183123 194.80665693 -203.31053162 194.33790588 C-198.77737061 193.10899726 -194.24630221 191.87255429 -189.71575928 190.6340332 C-182.44076356 188.64647094 -175.16282259 186.66973766 -167.88450432 184.69438362 C-165.34330883 184.00340881 -162.80313629 183.30876971 -160.26307678 182.6136322 C-158.71520464 182.19211735 -157.16730862 181.77069016 -155.61938477 181.34936523 C-154.91135712 181.15457077 -154.20332947 180.95977631 -153.47384644 180.75907898 C-148.60199537 179.4375 -148.60199537 179.4375 -146.375 179.4375 C-146.25268509 178.45250519 -146.13037018 177.46751038 -146.00434875 176.45266724 C-145.40511831 172.27857189 -144.3918268 168.26524652 -143.30541992 164.19482422 C-143.09712051 163.40204071 -142.88882111 162.6092572 -142.67420959 161.79244995 C-141.98916228 159.19113994 -141.2978806 156.59154629 -140.60546875 153.9921875 C-140.36866205 153.10017765 -140.13185535 152.2081678 -139.8878727 151.28912735 C-138.63633074 146.57485427 -137.38012392 141.8618545 -136.11987305 137.14990234 C-134.82083764 132.28954086 -133.53717425 127.42525845 -132.25704479 122.55988884 C-131.26763099 118.81041074 -130.26712757 115.06395699 -129.2635746 111.31824112 C-128.78543377 109.52602138 -128.31142174 107.73269473 -127.84166527 105.93825912 C-127.18371939 103.42934103 -126.5101977 100.92510214 -125.83276367 98.42138672 C-125.64299957 97.68359985 -125.45323547 96.94581299 -125.25772095 96.18566895 C-124.04399915 91.77954254 -122.72490564 88.58896521 -119.375 85.4375 C-116.1990509 84.10386658 -116.1990509 84.10386658 -112.39770508 83.09741211 C-111.70266373 82.90803574 -111.00762238 82.71865936 -110.29151917 82.52354431 C-107.99683118 81.90305775 -105.69619775 81.30887001 -103.39453125 80.71484375 C-101.78146818 80.28469249 -100.16881816 79.85298959 -98.55656433 79.41981506 C-94.3044734 78.28218391 -90.04678799 77.16703392 -85.78765869 76.05609131 C-82.35868001 75.15789706 -78.93385392 74.24448079 -75.50919056 73.32999325 C-59.84507564 69.1476364 -44.17471307 65.07910747 -28.375 61.4375 C-28.2419043 60.67477783 -28.10880859 59.91205566 -27.97167969 59.1262207 C-26.983418 53.4928222 -25.83562066 47.96699249 -24.375 42.4375 C-25.096875 41.98375 -25.81875 41.53 -26.5625 41.0625 C-31.33486291 36.60829462 -33.9256813 31.67181997 -34.828125 25.17578125 C-35.08135526 17.38895076 -34.15091243 11.53118724 -28.796875 5.7265625 C-20.9175173 -1.54942096 -10.15017227 -4.51984639 0 0 Z " fill="#F7CF58" transform="translate(366.375,50.5625)"/>
<path d="M0 0 C1.28601074 1.31837463 1.28601074 1.31837463 2.84179688 3.23266602 C7.48479909 8.68813384 12.62790655 13.59765297 17.77125549 18.57133293 C20.81373376 21.52049034 23.83505275 24.49123074 26.859375 27.45898438 C30.68904032 31.216497 34.52490105 34.96673942 38.38867188 38.68920898 C41.53086484 41.71760717 44.64795679 44.76990866 47.74961853 47.83978462 C48.93054347 48.99978236 50.12034183 50.15082 51.31910706 51.29237175 C60.40010757 59.95297068 60.40010757 59.95297068 61.63499451 64.16680908 C61.46067586 66.64672665 60.80427005 68.64291305 60 71 C59.53312488 72.89847245 59.06711721 74.79717899 58.61127567 76.69833088 C57.67014069 80.54213729 56.62577216 84.35841936 55.59765625 88.1796875 C55.15506277 89.84104709 54.71288514 91.50251752 54.27110291 93.16409302 C53.34808793 96.6297355 52.42049128 100.09410863 51.48950195 103.55761719 C50.29643038 107.99738803 49.11430967 112.43998781 47.93547916 116.88355827 C47.02597168 120.30754572 46.11105771 123.73006998 45.1944561 127.15216446 C44.75628743 128.79041125 44.31972928 130.42908967 43.88481331 132.06820297 C43.27769153 134.35279727 42.66339942 136.63534232 42.04711914 138.91748047 C41.86886597 139.59386063 41.69061279 140.27024078 41.50695801 140.96711731 C40.65435095 144.09514904 39.82131558 146.26802663 38 149 C35.4240954 149.93128331 32.9505085 150.68693643 30.30908203 151.37597656 C29.11859253 151.70091095 29.11859253 151.70091095 27.90405273 152.03240967 C25.27492825 152.74665024 22.64166418 153.44403599 20.0078125 154.140625 C18.18159821 154.6312531 16.35558127 155.1226163 14.52975464 155.61468506 C10.69998743 156.64405596 6.86816007 157.66525565 3.03466797 158.68066406 C-1.88109643 159.98331926 -6.79156552 161.30477562 -11.70068169 162.63223648 C-15.47168552 163.64994266 -19.245149 164.65826206 -23.01944351 165.66368866 C-24.83109105 166.1473744 -26.64199864 166.63384034 -28.45214462 167.12311554 C-30.98245893 167.80540507 -33.51576804 168.47515048 -36.05029297 169.14160156 C-36.79953033 169.34619995 -37.5487677 169.55079834 -38.32070923 169.76159668 C-45.05322279 171.50556929 -45.05322279 171.50556929 -48 170 C-50.13231113 168.20779535 -52.10418357 166.40854183 -54.08544922 164.46142578 C-54.98359596 163.59525887 -54.98359596 163.59525887 -55.89988708 162.71159363 C-57.87716473 160.79852164 -59.84213125 158.8734785 -61.8046875 156.9453125 C-62.47650181 156.28697292 -63.14831612 155.62863335 -63.84048843 154.95034409 C-67.39412375 151.46510866 -70.93747419 147.96975843 -74.47363281 144.46679688 C-78.12584468 140.85338107 -81.81387511 137.27894914 -85.51127434 133.71187019 C-88.35015948 130.958975 -91.15979917 128.17758886 -93.96240616 125.38781357 C-95.30953697 124.05712899 -96.6676544 122.73747082 -98.03676987 121.42941666 C-108.72415755 111.19065149 -108.72415755 111.19065149 -109.39845276 105.83561707 C-108.90701465 102.9741133 -108.14289349 100.66011535 -107 98 C-106.5372803 96.35018536 -106.09059207 94.69569453 -105.66796875 93.03515625 C-105.17890176 91.37629388 -104.68527877 89.71876905 -104.1875 88.0625 C-102.13652473 81.07417694 -100.22272254 74.07637091 -98.5 67 C-96.56193233 59.07810915 -94.50840758 51.19400623 -92.12060547 43.39404297 C-90.94470486 39.53869082 -90.00657742 36.06124846 -89.57421875 32.03515625 C-89.04535325 28.02037726 -88.49192591 26.21753667 -86 23 C-82.72272168 21.40909183 -79.28656816 20.57283921 -75.765625 19.67578125 C-74.71257172 19.38863754 -73.65951843 19.10149384 -72.57455444 18.8056488 C-70.27413131 18.18151616 -67.97089963 17.5676673 -65.66534424 16.96276855 C-61.91707151 15.97821734 -58.17762689 14.96473674 -54.43896484 13.94433594 C-47.18516641 11.96835828 -39.92119589 10.03180872 -32.65490723 8.10235596 C-29.89918019 7.36946746 -27.14453145 6.63256837 -24.38985634 5.89573765 C-21.08607741 5.01267306 -17.78128602 4.13342942 -14.4765625 3.25390625 C-13.24974762 2.92588516 -12.02293274 2.59786407 -10.75894165 2.25990295 C-9.63531219 1.96216476 -8.51168274 1.66442657 -7.35400391 1.35766602 C-6.36494049 1.09454117 -5.37587708 0.83141632 -4.35684204 0.56031799 C-2 0 -2 0 0 0 Z " fill="#F7CF58" transform="translate(224,243)"/>
<path d="M0 0 C6.30594733 3.72326204 10.53252832 9.46259441 12.625 16.4375 C13.54514437 23.91225307 12.59222292 29.99889231 8.625 36.4375 C5.17702138 40.74747327 0.8847379 43.73498086 -4.375 45.4375 C-6.37395023 45.5022919 -8.37647345 45.51425707 -10.375 45.4375 C-10.68244141 46.97470703 -10.68244141 46.97470703 -10.99609375 48.54296875 C-13.375 60.4375 -13.375 60.4375 -14.28695679 62.76667786 C-14.66698256 65.72508816 -14.66698256 65.72508816 -12.03433228 68.4929657 C-10.8841895 69.65748859 -9.71711774 70.80542815 -8.53759766 71.94018555 C-7.90536789 72.57168518 -7.27313812 73.20318481 -6.62174988 73.8538208 C-4.52460108 75.94167762 -2.40711405 78.00758789 -0.2890625 80.07421875 C1.1686601 81.51821273 2.62499298 82.96361088 4.07998657 84.41035461 C7.91695547 88.21872119 11.77114599 92.00917166 15.62957764 95.79577637 C20.31805463 100.40276607 24.98773909 105.02878514 29.65847206 109.65375233 C33.29186851 113.2513196 36.92858164 116.84529451 40.57577515 120.42887878 C41.57892509 121.41710381 41.57892509 121.41710381 42.6023407 122.42529297 C43.8543826 123.65864146 45.10832868 124.89006093 46.36448669 126.11921692 C50.51218091 130.21186182 50.51218091 130.21186182 51.625 132.4375 C51.59248401 140.32306789 49.68729492 147.62808339 47.4375 155.125 C44.94775826 163.6920742 42.61405916 172.26992696 40.5 180.9375 C38.81909885 187.80298086 37.04066826 194.60786707 35 201.375 C34.47043701 203.25747437 34.47043701 203.25747437 33.93017578 205.17797852 C33.11311638 208.00236762 32.13201185 210.63736196 30.94677734 213.32617188 C29.2223761 217.66981933 27.92702749 221.73475594 28.625 226.4375 C32.2635784 233.56475318 38.99116385 238.7680362 44.875 244 C46.48778199 245.50734706 48.09591761 247.01968184 49.69921875 248.53710938 C53.62257438 252.22996954 57.59945953 255.85647389 61.625 259.4375 C60.11553489 262.61836518 58.54558175 264.73619906 56 267.1875 C55.36835938 267.80109375 54.73671875 268.4146875 54.0859375 269.046875 C53.60382813 269.50578125 53.12171875 269.9646875 52.625 270.4375 C47.88165909 266.51440658 43.53146386 262.39111825 39.31640625 257.91015625 C38.14641171 256.69347802 36.97515008 255.4780172 35.80273438 254.26367188 C33.98295846 252.37584852 32.17129153 250.48267959 30.37963867 248.56811523 C28.62929466 246.70258883 26.85146651 244.86741078 25.06640625 243.03515625 C24.53906387 242.45822525 24.0117215 241.88129425 23.46839905 241.28688049 C21.73762913 239.44711484 21.73762913 239.44711484 18.625 237.4375 C13.20609963 237.78309835 8.11344011 238.94594272 2.87963867 240.37109375 C1.78783798 240.66151047 1.78783798 240.66151047 0.67398071 240.95779419 C-1.70440896 241.59180344 -4.08070868 242.23329076 -6.45703125 242.875 C-8.11981219 243.32001676 -9.78271193 243.7645898 -11.44572449 244.20874023 C-15.80396775 245.37411683 -20.16043755 246.5459952 -24.51660156 247.71911621 C-28.07913086 248.67731936 -31.64290207 249.63085256 -35.2067461 250.58415222 C-39.45725661 251.72121894 -43.70722702 252.86029671 -47.95703125 254 C-48.76738138 254.21727753 -49.57773151 254.43455505 -50.41263771 254.65841675 C-52.70091949 255.27250541 -54.98883238 255.88794728 -57.27661133 256.50390625 C-57.95456253 256.6857547 -58.63251373 256.86760315 -59.33100891 257.05496216 C-62.04049916 257.78580344 -64.71175847 258.54975282 -67.375 259.4375 C-68.17831048 261.26361718 -68.17831048 261.26361718 -68.5859375 263.53125 C-68.77599365 264.38759033 -68.9660498 265.24393066 -69.16186523 266.1262207 C-69.35594971 267.05394287 -69.55003418 267.98166504 -69.75 268.9375 C-70.18253382 270.87972587 -70.61877846 272.8211288 -71.05859375 274.76171875 C-71.27757324 275.72899902 -71.49655273 276.6962793 -71.72216797 277.69287109 C-72.61005554 281.42571779 -73.68325199 285.08424542 -74.8125 288.75 C-76.90189702 295.59223759 -78.67165548 302.48959026 -80.375 309.4375 C-82.46605114 317.95699388 -84.73465465 326.38463196 -87.28515625 334.77734375 C-88.52273838 338.93366795 -89.59603795 343.11795788 -90.6015625 347.3359375 C-91.501404 349.78096138 -92.39856172 350.75670399 -94.375 352.4375 C-96.3374939 353.26196289 -96.3374939 353.26196289 -98.63037109 353.91015625 C-99.51383209 354.16458496 -100.39729309 354.41901367 -101.30752563 354.68115234 C-102.28627655 354.95137207 -103.26502747 355.2215918 -104.2734375 355.5 C-105.3176889 355.79600098 -106.36194031 356.09200195 -107.43783569 356.39697266 C-110.42179701 357.2379279 -113.40846697 358.06821782 -116.39720154 358.89202881 C-118.44507494 359.45682647 -120.49217866 360.02435199 -122.53918457 360.59228516 C-131.7465662 363.14382013 -140.9650582 365.6525445 -150.19042969 368.13818359 C-153.43093167 369.01189974 -156.66933658 369.89286814 -159.90625 370.77978516 C-163.87974363 371.86849617 -167.85628384 372.94528792 -171.83533859 374.01348877 C-173.33311551 374.41764451 -174.82979289 374.82589976 -176.32527542 375.23846436 C-178.3996597 375.8097858 -180.47762112 376.36563472 -182.55712891 376.91796875 C-183.73272369 377.23660889 -184.90831848 377.55524902 -186.11953735 377.88354492 C-189.77316211 378.50525194 -191.84701039 378.60433174 -195.375 377.4375 C-197.95793081 375.53987815 -200.14122666 373.31366068 -202.37426758 371.02172852 C-203.38266693 370.0168338 -203.38266693 370.0168338 -204.41143799 368.99163818 C-206.62633078 366.77835789 -208.82288935 364.54778939 -211.01953125 362.31640625 C-212.55453589 360.77461214 -214.09057678 359.23384908 -215.62760925 357.69407654 C-218.84355076 354.46746108 -222.05130886 351.23300948 -225.25268555 347.99194336 C-229.36291183 343.8307647 -233.4859794 339.68262664 -237.6142931 335.53939915 C-241.54496193 331.59396316 -245.47037173 327.64331527 -249.39453125 323.69140625 C-250.14680307 322.93422365 -250.8990749 322.17704105 -251.67414284 321.39691353 C-253.79319082 319.26163895 -255.90859676 317.12283007 -258.02270508 314.98266602 C-258.65488449 314.34622665 -259.2870639 313.70978729 -259.93840027 313.05406189 C-265.51832657 307.39042444 -265.51832657 307.39042444 -265.56867981 302.34086609 C-265.50997721 297.61861986 -264.60472242 293.49362569 -263.27612305 288.98364258 C-263.05351303 288.19217331 -262.83090302 287.40070404 -262.60154724 286.58525085 C-262.12183385 284.88321188 -261.63712899 283.18257313 -261.14786339 281.48325539 C-260.37521253 278.7919527 -259.62059848 276.096183 -258.87104797 273.39836121 C-256.73988132 265.73456263 -254.5879663 258.0769238 -252.3972168 250.42993164 C-251.05463969 245.73880021 -249.74220359 241.04010544 -248.44861794 236.33524132 C-247.95081016 234.54786763 -247.44155214 232.76364182 -246.92066002 230.98285866 C-246.19430789 228.49659401 -245.50671631 226.00249823 -244.8269043 223.50317383 C-244.60321167 222.77212433 -244.37951904 222.04107483 -244.14904785 221.28787231 C-243.40585447 218.43080743 -242.91564259 216.25602363 -244.40308571 213.60556602 C-245.90576151 211.72191241 -245.90576151 211.72191241 -248.375 209.4375 C-249.509375 209.7675 -250.64375 210.0975 -251.8125 210.4375 C-259.92831836 212.39157226 -265.73514342 212.01139759 -273.14453125 207.921875 C-278.29072254 204.4970892 -281.95900097 199.51540354 -283.375 193.4375 C-284.17910667 185.76906813 -284.24330779 178.72752599 -279.375 172.4375 C-273.90553204 166.37262161 -267.62705983 163.42079933 -259.5 162.9375 C-253.09953056 163.15446507 -247.56042179 165.66359203 -242.7421875 169.859375 C-236.681753 176.60932001 -236.047653 182.63531917 -236.171875 191.3515625 C-236.375 194.4375 -236.375 194.4375 -237.015625 197.2109375 C-237.13421875 197.94570312 -237.2528125 198.68046875 -237.375 199.4375 C-235.62490567 201.64671339 -235.62490567 201.64671339 -233.49746609 201.48582554 C-228.28411877 200.79691832 -223.29006836 199.80347716 -218.22485352 198.39624023 C-217.46597336 198.19126923 -216.7070932 197.98629822 -215.92521667 197.77511597 C-213.44972518 197.10493996 -210.97687558 196.42551127 -208.50390625 195.74609375 C-206.77295925 195.27604229 -205.04183123 194.80665693 -203.31053162 194.33790588 C-198.77737061 193.10899726 -194.24630221 191.87255429 -189.71575928 190.6340332 C-182.44076356 188.64647094 -175.16282259 186.66973766 -167.88450432 184.69438362 C-165.34330883 184.00340881 -162.80313629 183.30876971 -160.26307678 182.6136322 C-158.71520464 182.19211735 -157.16730862 181.77069016 -155.61938477 181.34936523 C-154.91135712 181.15457077 -154.20332947 180.95977631 -153.47384644 180.75907898 C-148.60199537 179.4375 -148.60199537 179.4375 -146.375 179.4375 C-146.25268509 178.45250519 -146.13037018 177.46751038 -146.00434875 176.45266724 C-145.40511831 172.27857189 -144.3918268 168.26524652 -143.30541992 164.19482422 C-143.09712051 163.40204071 -142.88882111 162.6092572 -142.67420959 161.79244995 C-141.98916228 159.19113994 -141.2978806 156.59154629 -140.60546875 153.9921875 C-140.36866205 153.10017765 -140.13185535 152.2081678 -139.8878727 151.28912735 C-138.63633074 146.57485427 -137.38012392 141.8618545 -136.11987305 137.14990234 C-134.82083764 132.28954086 -133.53717425 127.42525845 -132.25704479 122.55988884 C-131.26763099 118.81041074 -130.26712757 115.06395699 -129.2635746 111.31824112 C-128.78543377 109.52602138 -128.31142174 107.73269473 -127.84166527 105.93825912 C-127.18371939 103.42934103 -126.5101977 100.92510214 -125.83276367 98.42138672 C-125.64299957 97.68359985 -125.45323547 96.94581299 -125.25772095 96.18566895 C-124.04399915 91.77954254 -122.72490564 88.58896521 -119.375 85.4375 C-116.1990509 84.10386658 -116.1990509 84.10386658 -112.39770508 83.09741211 C-111.70266373 82.90803574 -111.00762238 82.71865936 -110.29151917 82.52354431 C-107.99683118 81.90305775 -105.69619775 81.30887001 -103.39453125 80.71484375 C-101.78146818 80.28469249 -100.16881816 79.85298959 -98.55656433 79.41981506 C-94.3044734 78.28218391 -90.04678799 77.16703392 -85.78765869 76.05609131 C-82.35868001 75.15789706 -78.93385392 74.24448079 -75.50919056 73.32999325 C-59.84507564 69.1476364 -44.17471307 65.07910747 -28.375 61.4375 C-28.2419043 60.67477783 -28.10880859 59.91205566 -27.97167969 59.1262207 C-26.983418 53.4928222 -25.83562066 47.96699249 -24.375 42.4375 C-25.096875 41.98375 -25.81875 41.53 -26.5625 41.0625 C-31.33486291 36.60829462 -33.9256813 31.67181997 -34.828125 25.17578125 C-35.08135526 17.38895076 -34.15091243 11.53118724 -28.796875 5.7265625 C-20.9175173 -1.54942096 -10.15017227 -4.51984639 0 0 Z M-34.08178711 76.40942383 C-34.87705307 76.6191835 -35.67231903 76.82894318 -36.49168396 77.0450592 C-39.12937483 77.74188562 -41.76596049 78.44277468 -44.40234375 79.14453125 C-45.30143526 79.38350317 -46.20052677 79.62247509 -47.12686348 79.86868858 C-51.88381131 81.13346029 -56.63986056 82.40155248 -61.39526367 83.67211914 C-66.31379892 84.98551021 -71.2354092 86.28697025 -76.15781307 87.58577442 C-79.93682414 88.58528134 -83.71337752 89.59383579 -87.48932076 90.60486412 C-89.30291222 91.08872872 -91.11743343 91.56912215 -92.93287468 92.04599953 C-95.47086288 92.71354867 -98.00509703 93.39385465 -100.53881836 94.07739258 C-101.291651 94.272323 -102.04448364 94.46725342 -102.82012939 94.66809082 C-107.77855035 95.99317469 -107.77855035 95.99317469 -111.375 99.4375 C-112.31169198 101.81254016 -112.31169198 101.81254016 -112.953125 104.5390625 C-113.22326416 105.57369629 -113.49340332 106.60833008 -113.77172852 107.67431641 C-114.05330811 108.79241699 -114.3348877 109.91051758 -114.625 111.0625 C-115.24216732 113.43784395 -115.86069074 115.8128359 -116.48046875 118.1875 C-116.95105713 120.00314453 -116.95105713 120.00314453 -117.43115234 121.85546875 C-118.8601675 127.27877719 -120.40059449 132.6689931 -121.9375 138.0625 C-125.3458114 150.11915075 -128.49986797 162.24213954 -131.375 174.4375 C-131.60223188 175.10007718 -131.82946377 175.76265436 -132.06358147 176.44530964 C-133.46730142 180.86078913 -133.46730142 180.86078913 -132.59777737 185.25284386 C-131.20788256 187.05260876 -129.72050833 188.60197019 -128.08520508 190.18237305 C-127.49844498 190.79162125 -126.91168488 191.40086945 -126.30714417 192.02857971 C-124.36334191 194.03090281 -122.3818732 195.99017072 -120.39453125 197.94921875 C-119.02649792 199.32974562 -117.65995631 200.71175217 -116.29484558 202.09516907 C-113.4280659 204.98718133 -110.54183372 207.8578697 -107.64086914 210.71557617 C-103.92939749 214.37560551 -100.27476231 218.0870001 -96.63345814 221.81668377 C-93.8227914 224.68219009 -90.98215679 227.51642599 -88.13181114 230.34241676 C-86.7716393 231.69895364 -85.42130452 233.06543011 -84.08130836 234.44190025 C-77.34815659 241.84149168 -77.34815659 241.84149168 -68.61911011 245.94343567 C-65.65903337 245.46361686 -63.16810768 244.53004023 -60.375 243.4375 C-58.43020939 242.94429352 -56.48472831 242.4530141 -54.53154469 241.99417114 C-45.67424163 239.89967281 -36.89037622 237.46019447 -28.09375 235.1262207 C-24.60411469 234.20209418 -21.11079011 233.29449128 -17.61328125 232.40063477 C-13.36611379 231.31505231 -9.12724161 230.20148833 -4.89277649 229.06740379 C-3.28462124 228.64173656 -1.6738151 228.22595394 -0.06047058 227.82039833 C2.18982397 227.25255579 4.4276152 226.64918699 6.66601562 226.03637695 C7.94077759 225.70265579 9.21553955 225.36893463 10.52893066 225.02510071 C13.88273286 223.66407806 13.88273286 223.66407806 15.42489624 220.25007629 C16.61763856 216.46088636 17.7812908 212.6803019 18.78564453 208.83740234 C18.97954773 208.11289383 19.17345093 207.38838531 19.37322998 206.641922 C20.00653286 204.27042053 20.6322838 201.89700027 21.2578125 199.5234375 C21.69911545 197.8637904 22.14084389 196.20425638 22.58297729 194.54483032 C23.50563731 191.07760598 24.42486018 187.60949627 25.34130859 184.140625 C26.51458496 179.6997658 27.69381073 175.26051552 28.87527657 170.82182884 C30.00484715 166.57707775 31.13143541 162.33153691 32.2578125 158.0859375 C32.47205997 157.27940105 32.68630745 156.47286461 32.90704727 155.64188766 C33.51405716 153.35462593 34.11894144 151.06681315 34.72314453 148.77880859 C34.90185089 148.1064769 35.08055725 147.4341452 35.26467896 146.74143982 C36.1646819 143.32363807 36.97621786 139.91206111 37.625 136.4375 C37.19066147 136.07380814 36.75632294 135.71011627 36.30882263 135.33540344 C29.63834914 129.63317385 23.47900868 123.43694244 17.28515625 117.23046875 C16.11085843 116.05684573 14.93641229 114.8833711 13.76182556 113.71003723 C11.31704862 111.26672545 8.87406688 108.82163688 6.43237305 106.37524414 C3.2995907 103.2367271 0.16228856 100.10277229 -2.97634029 96.97010326 C-5.39471398 94.55533488 -7.8107112 92.13820018 -10.22598457 89.72033119 C-11.38271216 88.56293621 -12.54018391 87.40628447 -13.69840813 86.25038719 C-15.30909761 84.64222778 -16.91656322 83.03091468 -18.52319336 81.41870117 C-19.43838242 80.50271652 -20.35357147 79.58673187 -21.29649353 78.64299011 C-23.375 76.4375 -23.375 76.4375 -24.375 74.4375 C-27.71136431 74.4375 -30.87437393 75.55535459 -34.08178711 76.40942383 Z M-152.08178711 194.40942383 C-152.87705307 194.6191835 -153.67231903 194.82894318 -154.49168396 195.0450592 C-157.12937483 195.74188562 -159.76596049 196.44277468 -162.40234375 197.14453125 C-163.30143526 197.38350317 -164.20052677 197.62247509 -165.12686348 197.86868858 C-169.88381131 199.13346029 -174.63986056 200.40155248 -179.39526367 201.67211914 C-184.31379892 202.98551021 -189.2354092 204.28697025 -194.15781307 205.58577442 C-197.93682414 206.58528134 -201.71337752 207.59383579 -205.48932076 208.60486412 C-207.30291222 209.08872872 -209.11743343 209.56912215 -210.93287468 210.04599953 C-213.47086288 210.71354867 -216.00509703 211.39385465 -218.53881836 212.07739258 C-219.291651 212.272323 -220.04448364 212.46725342 -220.82012939 212.66809082 C-225.7781746 213.9935145 -225.7781746 213.9935145 -229.375 217.4375 C-230.311539 219.79595061 -230.311539 219.79595061 -230.953125 222.50390625 C-231.35821289 224.04800171 -231.35821289 224.04800171 -231.77148438 225.62329102 C-232.05314453 226.73760498 -232.33480469 227.85191895 -232.625 229 C-233.2445662 231.37505883 -233.86436425 233.75005718 -234.484375 236.125 C-234.79826172 237.341875 -235.11214844 238.55875 -235.43554688 239.8125 C-236.87962522 245.38466093 -238.37620438 250.94235411 -239.875 256.5 C-240.30111572 258.08917236 -240.30111572 258.08917236 -240.73583984 259.71044922 C-242.23320218 265.2784751 -243.7623953 270.8358044 -245.3359375 276.3828125 C-245.65626953 277.51323975 -245.97660156 278.64366699 -246.30664062 279.80834961 C-246.91829839 281.95880788 -247.53394107 284.10813827 -248.15429688 286.25610352 C-248.43080078 287.22733154 -248.70730469 288.19855957 -248.9921875 289.19921875 C-249.23565918 290.04444092 -249.47913086 290.88966309 -249.72998047 291.76049805 C-249.94283691 292.64390869 -250.15569336 293.52731934 -250.375 294.4375 C-250.66474701 295.51328308 -250.95449402 296.58906616 -251.25302124 297.69744873 C-251.74421182 301.56439309 -251.74421182 301.56439309 -249.21551514 304.64649963 C-248.15510825 305.76952189 -247.07191681 306.87129274 -245.97167969 307.95532227 C-245.38477356 308.56427841 -244.79786743 309.17323456 -244.19317627 309.80064392 C-242.24819096 311.80629531 -240.27478836 313.78075598 -238.296875 315.75390625 C-236.93092737 317.13794431 -235.56580608 318.52279836 -234.20147705 319.90843201 C-231.33645328 322.80781506 -228.45615656 325.69094971 -225.56542969 328.56469727 C-221.86705635 332.24549124 -218.21875336 335.97184286 -214.58164597 339.71305943 C-211.7747378 342.58648651 -208.93841091 345.42941 -206.09287262 348.26453972 C-204.7350388 349.62626846 -203.3874876 350.99833276 -202.0507431 352.38076973 C-195.34209947 359.81560189 -195.34209947 359.81560189 -186.62133789 363.94789124 C-183.65958717 363.46773697 -181.16906917 362.53227249 -178.375 361.4375 C-176.43020261 360.94416834 -174.48470974 360.45277311 -172.53146744 359.99401665 C-163.67409712 357.90006347 -154.89031637 355.46017859 -146.09375 353.1262207 C-142.60411469 352.20209418 -139.11079011 351.29449128 -135.61328125 350.40063477 C-131.36611379 349.31505231 -127.12724161 348.20148833 -122.89277649 347.06740379 C-121.28462124 346.64173656 -119.6738151 346.22595394 -118.06047058 345.82039833 C-115.81017603 345.25255579 -113.5723848 344.64918699 -111.33398438 344.03637695 C-110.05922241 343.70265579 -108.78446045 343.36893463 -107.47106934 343.02510071 C-104.11722029 341.66418241 -104.11722029 341.66418241 -102.57609558 338.25007629 C-101.38212949 334.46013079 -100.21158473 330.67920417 -99.19848633 326.83740234 C-99.00297684 326.11289383 -98.80746735 325.38838531 -98.60603333 324.641922 C-97.9676921 322.27048938 -97.33705564 319.89709205 -96.70703125 317.5234375 C-96.26319556 315.86382646 -95.81907375 314.20429191 -95.37467957 312.54483032 C-94.44754183 309.07768365 -93.52430794 305.60952683 -92.60375977 302.140625 C-91.42464199 297.69887701 -90.23511867 293.25999294 -89.04259205 288.82182884 C-88.12452311 285.40006329 -87.21231164 281.97675706 -86.30182457 278.55296707 C-85.86553396 276.91543052 -85.42734947 275.27839732 -84.98722267 273.64188766 C-84.37324872 271.35574254 -83.7672823 269.06761854 -83.16333008 266.77880859 C-82.98102844 266.1064769 -82.79872681 265.4341452 -82.61090088 264.74143982 C-81.19726638 259.62920425 -81.19726638 259.62920425 -81.375 254.4375 C-83.14056547 252.20973381 -84.83707756 250.35274319 -86.86694336 248.39379883 C-87.4505513 247.81106705 -88.03415924 247.22833527 -88.63545227 246.62794495 C-90.56712207 244.70485556 -92.5157764 242.7999723 -94.46484375 240.89453125 C-95.80882053 239.56242073 -97.15162496 238.22912646 -98.49330139 236.8946991 C-102.02827404 233.38448742 -105.57755451 229.88911021 -109.13043213 226.39703369 C-114.13963786 221.46825324 -119.12918576 216.51956071 -124.12098694 211.57316589 C-126.78022119 208.93822906 -129.44480594 206.30888741 -132.11375427 203.68379211 C-133.32707269 202.48688329 -134.54037613 201.28995928 -135.75366211 200.09301758 C-136.31111115 199.54701904 -136.86856018 199.00102051 -137.44290161 198.43847656 C-141.26197942 194.66354116 -141.26197942 194.66354116 -142.375 192.4375 C-145.71136431 192.4375 -148.87437393 193.55535459 -152.08178711 194.40942383 Z " fill="#FEFDFA" transform="translate(366.375,50.5625)"/>
<path d="M0 0 C2.99145181 1.34300914 5.07701552 2.82940954 7.3828125 5.15234375 C7.99253906 5.76400391 8.60226562 6.37566406 9.23046875 7.00585938 C9.85566406 7.64330078 10.48085938 8.28074219 11.125 8.9375 C11.75792969 9.57107422 12.39085937 10.20464844 13.04296875 10.85742188 C15.6587636 13.4982084 17.92877561 15.89316342 20 19 C19.64311507 26.09571223 17.96675164 32.76795791 16.1875 39.625 C15.78591675 41.19809937 15.78591675 41.19809937 15.3762207 42.80297852 C14.59069133 45.87038468 13.79629969 48.93537496 13 52 C12.7834375 52.84256348 12.566875 53.68512695 12.34375 54.55322266 C9.19459459 66.80540541 9.19459459 66.80540541 8 68 C6.07421875 67.94921875 6.07421875 67.94921875 3.6875 67.6875 C2.90761719 67.60886719 2.12773437 67.53023438 1.32421875 67.44921875 C-1.08207271 66.98413721 -2.87133832 66.19341444 -5 65 C-4.3114316 56.32625937 -1.66610927 48.08584905 0.71240234 39.75512695 C1.27886803 37.7624922 1.83161227 35.76643379 2.3828125 33.76953125 C2.88385498 31.99993042 2.88385498 31.99993042 3.39501953 30.19458008 C4.00691554 26.96348272 4.04541801 25.09459857 3 22 C0.69447687 19.49939414 -1.68725083 17.26889469 -4.2265625 15.01757812 C-5.7265625 13.62109375 -5.7265625 13.62109375 -8 11 C-8.0792713 8.15151781 -7.19772178 7.23328326 -5.37109375 5.078125 C-4.73300781 4.47484375 -4.09492188 3.8715625 -3.4375 3.25 C-2.79683594 2.63640625 -2.15617187 2.0228125 -1.49609375 1.390625 C-1.00238281 0.93171875 -0.50867188 0.4728125 0 0 Z " fill="#FEFCF7" transform="translate(368,172)"/>
<path d="M0 0 C3.10851082 1.3857472 5.26055073 2.99599983 7.68286133 5.37646484 C8.38651321 6.06412933 9.0901651 6.75179382 9.81513977 7.46029663 C10.56321396 8.20300812 11.31128815 8.9457196 12.08203125 9.7109375 C12.85560471 10.47548248 13.62917816 11.24002747 14.42619324 12.02774048 C16.05695261 13.64400619 17.68492641 15.26308662 19.31030273 16.88476562 C21.8084235 19.37094299 24.32458327 21.83786241 26.84179688 24.3046875 C28.42302053 25.87645258 30.00313757 27.44933189 31.58203125 29.0234375 C32.34022659 29.76210052 33.09842194 30.50076355 33.8795929 31.2618103 C34.91142952 32.30276352 34.91142952 32.30276352 35.96411133 33.36474609 C36.57603836 33.97160248 37.18796539 34.57845886 37.81843567 35.20370483 C39 37 39 37 38.79154968 39.10708618 C37.767369 41.55631434 36.36056374 42.93183065 34.4375 44.75 C33.47650391 45.67039062 33.47650391 45.67039062 32.49609375 46.609375 C32.00238281 47.06828125 31.50867188 47.5271875 31 48 C25.85170256 43.69372744 21.04247928 39.17688069 16.31640625 34.4140625 C15.61603745 33.71227875 14.91566864 33.010495 14.19407654 32.28744507 C11.98116973 30.06898864 9.77178584 27.84706185 7.5625 25.625 C6.05296686 24.11044534 4.54320343 22.59612015 3.03320312 21.08203125 C-0.64719702 17.39066901 -4.32471957 13.69645931 -8 10 C-5.95933017 5.73384496 -3.41446998 3.26601476 0 0 Z " fill="#FEFDFB" transform="translate(228,269)"/>
<path d="M0 0 C3.32460362 1.72651089 5.51249929 3.91029253 7.0625 7.375 C6.95427224 11.92056605 5.28237141 15.52764764 2.3125 18.9375 C-1.13308492 20.52060659 -4.33401556 20.77102054 -8 20 C-11.28440333 17.62404866 -12.67080315 15.94644094 -14 12.125 C-14 8.09693738 -12.89929459 5.52726138 -11 2 C-7.30004411 -0.46663726 -4.29149304 -0.79352135 0 0 Z " fill="#F7CF5A" transform="translate(110,228)"/>
<path d="M0 0 C3.3216275 1.73581824 5.51092322 3.90676956 7.0625 7.375 C6.97178776 11.18491394 5.84239555 13.683688 4 17 C0.98201554 19.68265285 -0.44719426 20.00987153 -4.5 19.9375 C-8.37347619 18.89996173 -10.29073577 17.94831696 -13 15 C-14.48059656 10.45950388 -14.006727 7.30012929 -12 3 C-8.80057408 -0.69164529 -4.59796336 -0.94430342 0 0 Z " fill="#F7CF59" transform="translate(359,63)"/>
<path d="M0 0 C2.93200474 2.85276137 5.64315404 5.65079784 8 9 C5.36 9 2.72 9 0 9 C0 6.03 0 3.06 0 0 Z " fill="#FEFCF4" transform="translate(0,477)"/>
</svg>
